# xmcd CD database file
#
# Track frame offsets:
#	150
#	21517
#	42907
#
# Disc length: 851 seconds
#
# Revision: 3
# Processed by: cddbd v1.5.2PL0 Copyright (c) Steve Scherf et al.
# Submitted via: CDex 1.86
#
DISCID=20035103
DTITLE=gloria estefan - corazon prohibido
DYEAR=1900
DGENRE=Country
TTITLE0=corazon prohibido
TTITLE1=corazon prohibido-remix
TTITLE2=heaven what i feel
EXTD=
EXTT0=
EXTT1=
EXTT2=
PLAYORDER=
